<svg xmlns="http://www.w3.org/2000/svg" viewBox="0 0 960 220" width="960" height="220">
<rect width="960" height="220" fill="#0B0B0D"/>
<rect x="0" y="0" width="120" height="150" fill="#120A06"/><rect x="120" y="0" width="120" height="150" fill="#6E5B4E"/><rect x="240" y="0" width="120" height="150" fill="#C75A2B"/><rect x="360" y="0" width="120" height="150" fill="#A85C39"/><rect x="480" y="0" width="120" height="150" fill="#E07A3E"/><rect x="600" y="0" width="120" height="150" fill="#3DA5A5"/><rect x="720" y="0" width="120" height="150" fill="#1C3A3A"/><rect x="840" y="0" width="120" height="150" fill="#A7DCDC"/><text x="60.0" y="80" text-anchor="middle" font-family="monospace" font-size="13" fill="#F4D58A">void</text><text x="60.0" y="100" text-anchor="middle" font-family="monospace" font-size="11" fill="#F4D58A">#120A06</text><text x="180.0" y="80" text-anchor="middle" font-family="monospace" font-size="13" fill="#F4D58A">structure</text><text x="180.0" y="100" text-anchor="middle" font-family="monospace" font-size="11" fill="#F4D58A">#6E5B4E</text><text x="300.0" y="80" text-anchor="middle" font-family="monospace" font-size="13" fill="#F4D58A">signal</text><text x="300.0" y="100" text-anchor="middle" font-family="monospace" font-size="11" fill="#F4D58A">#C75A2B</text><text x="420.0" y="80" text-anchor="middle" font-family="monospace" font-size="13" fill="#F4D58A">memory</text><text x="420.0" y="100" text-anchor="middle" font-family="monospace" font-size="11" fill="#F4D58A">#A85C39</text><text x="540.0" y="80" text-anchor="middle" font-family="monospace" font-size="13" fill="#120A06">value</text><text x="540.0" y="100" text-anchor="middle" font-family="monospace" font-size="11" fill="#120A06">#E07A3E</text><text x="660.0" y="80" text-anchor="middle" font-family="monospace" font-size="13" fill="#120A06">life</text><text x="660.0" y="100" text-anchor="middle" font-family="monospace" font-size="11" fill="#120A06">#3DA5A5</text><text x="780.0" y="80" text-anchor="middle" font-family="monospace" font-size="13" fill="#F4D58A">shadow</text><text x="780.0" y="100" text-anchor="middle" font-family="monospace" font-size="11" fill="#F4D58A">#1C3A3A</text><text x="900.0" y="80" text-anchor="middle" font-family="monospace" font-size="13" fill="#120A06">illumination</text><text x="900.0" y="100" text-anchor="middle" font-family="monospace" font-size="11" fill="#120A06">#A7DCDC</text>
<text x="20" y="185" font-family="monospace" font-size="22" font-weight="700" fill="#C75A2B">Evo</text>
<text x="80" y="185" font-family="monospace" font-size="14" fill="#A7DCDC">ember · oxide · cold-clean · what-held</text>
<text x="940" y="185" text-anchor="end" font-family="monospace" font-size="12" fill="#3DA5A5">chromatic grammar · :&lt;477&gt;=-</text>
<text x="20" y="207" font-family="monospace" font-size="11" fill="#6E5B4E">the coal that should have gone cold is the one still giving light.</text>
</svg>